<svg width="25" height="20" viewBox="0 0 25 20" fill="none" xmlns="http://www.w3.org/2000/svg">
<path d="M20.8333 16.6667V17.3611C20.8333 18.5117 19.9006 19.4444 18.75 19.4444H2.08333C0.932726 19.4444 0 18.5117 0 17.3611V6.25C0 5.09939 0.932726 4.16667 2.08333 4.16667H2.77778V13.1944C2.77778 15.109 4.33542 16.6667 6.25 16.6667H20.8333ZM25 13.1944V2.08333C25 0.932726 24.0673 0 22.9167 0H6.25C5.09939 0 4.16667 0.932726 4.16667 2.08333V13.1944C4.16667 14.3451 5.09939 15.2778 6.25 15.2778H22.9167C24.0673 15.2778 25 14.3451 25 13.1944ZM11.1111 4.16667C11.1111 5.31727 10.1784 6.25 9.02778 6.25C7.87717 6.25 6.94444 5.31727 6.94444 4.16667C6.94444 3.01606 7.87717 2.08333 9.02778 2.08333C10.1784 2.08333 11.1111 3.01606 11.1111 4.16667ZM6.94444 10.4167L9.35395 8.00716C9.55733 7.80377 9.88711 7.80377 10.0905 8.00716L11.8056 9.72222L17.6873 3.84049C17.8907 3.63711 18.2204 3.63711 18.4239 3.84049L22.2222 7.63889V12.5H6.94444V10.4167Z" fill="#007BFC"/>
</svg>
