<svg width="25" height="22" viewBox="0 0 25 22" fill="none" xmlns="http://www.w3.org/2000/svg">
<path d="M7.8125 12.5H7.03125C5.30518 12.5 3.90625 13.9014 3.90625 15.6309V18.7441C3.90625 20.4731 5.30518 21.875 7.03125 21.875H7.8125C8.67529 21.875 9.375 21.1738 9.375 20.3096V14.0654C9.375 13.2007 8.67529 12.5 7.8125 12.5ZM17.9688 12.5H17.1875C16.3247 12.5 15.625 13.2007 15.625 14.0654V20.3096C15.625 21.1738 16.3247 21.875 17.1875 21.875H17.9688C19.6948 21.875 21.0938 20.4731 21.0938 18.7441V15.6309C21.0938 13.9019 19.6948 12.5 17.9688 12.5ZM12.5 0C5.51318 0 0.223145 5.81689 0 12.5V17.9688C0 18.4004 0.349609 18.75 0.78125 18.75H1.5625C1.99414 18.75 2.34375 18.4004 2.34375 17.9688V12.5C2.34375 6.90088 6.90088 2.35352 12.5 2.35254C18.0991 2.35352 22.6562 6.90088 22.6562 12.5V17.9688C22.6562 18.4004 23.0059 18.75 23.4375 18.75H24.2188C24.6504 18.75 25 18.4004 25 17.9688V12.5C24.7769 5.81689 19.4868 0 12.5 0Z" fill="#FA6533"/>
</svg>
